<?xml version="1.0" encoding="UTF-8" standalone="no"?>
<!-- Created with Inkscape (http://www.inkscape.org/) -->

<svg
   width="29.292334mm"
   height="25.877806mm"
   viewBox="0 0 29.292334 25.877806"
   version="1.1"
   id="svg1"
   xml:space="preserve"
   inkscape:version="1.4.3 (0d15f75, 2025-12-25)"
   sodipodi:docname="closedWHITE.svg"
   xmlns:inkscape="http://www.inkscape.org/namespaces/inkscape"
   xmlns:sodipodi="http://sodipodi.sourceforge.net/DTD/sodipodi-0.dtd"
   xmlns="http://www.w3.org/2000/svg"
   xmlns:svg="http://www.w3.org/2000/svg"><sodipodi:namedview
     id="namedview1"
     pagecolor="#ffffff"
     bordercolor="#000000"
     borderopacity="0.25"
     inkscape:showpageshadow="2"
     inkscape:pageopacity="0.0"
     inkscape:pagecheckerboard="0"
     inkscape:deskcolor="#d1d1d1"
     inkscape:document-units="mm"
     inkscape:zoom="6.9364054"
     inkscape:cx="21.7692"
     inkscape:cy="57.883006"
     inkscape:window-width="2056"
     inkscape:window-height="1188"
     inkscape:window-x="1920"
     inkscape:window-y="39"
     inkscape:window-maximized="1"
     inkscape:current-layer="layer1"
     showgrid="false"
     inkscape:export-bgcolor="#ffffff00"><inkscape:page
       x="0"
       y="0"
       width="29.292334"
       height="25.877806"
       id="page2"
       margin="0"
       bleed="0" /></sodipodi:namedview><defs
     id="defs1" /><g
     inkscape:label="Layer 1"
     inkscape:groupmode="layer"
     id="layer1"
     transform="translate(-70.974224,-182.89297)"><g
       id="g1"
       style="display:inline"><path
         id="rect1-1"
         transform="matrix(0.77082577,-0.15885087,0.15544352,0.77152011,32.727046,62.160595)"
         d="m 16.92206,175.40582 h 29.112802 a 2.6458581,2.6458581 45 0 1 2.645858,2.64586 v 12.24825 a 2.6458581,2.6458581 135 0 1 -2.645858,2.64586 H 16.92206 a 2.6458581,2.6458581 45 0 1 -2.645858,-2.64586 v -12.24825 a 2.6458581,2.6458581 135 0 1 2.645858,-2.64586 z"
         style="fill:#ffffff;fill-opacity:0;stroke:#ffffff;stroke-width:1;stroke-dasharray:none;stroke-opacity:1" /><path
         style="fill:#347600;fill-opacity:1;stroke:#ffffff;stroke-width:0.787024;stroke-dasharray:none;stroke-opacity:1"
         d="m 76.092785,194.08442 9.426153,-8.87962 m 1.616562,0.0259 5.43603,5.4578"
         id="path1-5"
         sodipodi:nodetypes="cccc" /><path
         id="path2-0"
         style="display:inline;fill:none;fill-opacity:1;stroke:#ffffff;stroke-width:0.787024;stroke-opacity:1"
         d="m 87.470399,184.42317 a 1.1305934,1.1366888 0 0 1 -1.130593,1.13669 1.1305934,1.1366888 0 0 1 -1.130594,-1.13669 1.1305934,1.1366888 0 0 1 1.130594,-1.13669 1.1305934,1.1366888 0 0 1 1.130593,1.13669 z" /><path
         id="path2-8-6"
         style="fill:#ffffff;fill-opacity:1;stroke-width:0.505661"
         d="m 73.856091,196.54076 a 0.71745014,0.73943567 0 0 1 -0.71745,0.73943 0.71745014,0.73943567 0 0 1 -0.71745,-0.73943 0.71745014,0.73943567 0 0 1 0.71745,-0.73944 0.71745014,0.73943567 0 0 1 0.71745,0.73944 z" /><path
         id="path2-8-2-5"
         style="fill:#ffffff;fill-opacity:1;stroke-width:0.505661"
         d="m 96.74233,191.75359 a 0.71745014,0.73943567 0 0 1 -0.717451,0.73943 0.71745014,0.73943567 0 0 1 -0.71745,-0.73943 0.71745014,0.73943567 0 0 1 0.71745,-0.73944 0.71745014,0.73943567 0 0 1 0.717451,0.73944 z" /></g><path
       style="font-weight:bold;font-size:7.77404px;line-height:1;font-family:'Andale Mono';-inkscape-font-specification:'Andale Mono, Bold';text-align:center;letter-spacing:-0.939129px;text-anchor:middle;fill:#e30000;stroke:#e30000;stroke-width:0.31481"
       d="m 36.096004,214.73101 q -0.630123,0.43653 -1.461429,0.43653 -1.040081,0 -1.582898,-0.71363 -0.53902,-0.71364 -0.53902,-2.06498 0,-1.3058 0.523837,-2.04221 0.523836,-0.7402 1.598081,-0.7402 0.387184,0 0.766776,0.0987 0.379591,0.0987 0.611142,0.26192 l -0.204979,0.48967 q -0.535225,-0.30367 -1.172939,-0.30367 -0.740204,0 -1.100816,0.53902 -0.360612,0.53523 -0.360612,1.69678 0,2.232 1.461428,2.232 0.618735,0 1.267837,-0.3796 z m 3.547646,0.33404 h -2.915265 v -5.35604 h 0.622531 v 4.81322 h 2.292734 z m 2.162137,-5.45853 q 0.899632,0 1.370326,0.71363 0.47449,0.70984 0.47449,2.06878 0,1.35134 -0.470694,2.06498 -0.470694,0.71363 -1.374122,0.71363 -0.895837,0 -1.370327,-0.70984 -0.470694,-0.71363 -0.470694,-2.06877 0,-1.35515 0.470694,-2.06878 0.470694,-0.71363 1.370327,-0.71363 z m 0,5.01441 q 1.184326,0 1.184326,-2.232 0,-2.2358 -1.184326,-2.2358 -0.57698,0 -0.880653,0.58078 -0.299878,0.57698 -0.299878,1.65502 0,1.08942 0.299878,1.66261 0.299877,0.56939 0.880653,0.56939 z m 4.876217,-4.31976 q -0.478286,-0.16322 -0.907225,-0.16322 -0.485877,0 -0.793346,0.22396 -0.303674,0.22016 -0.303674,0.63012 0,0.48588 0.800939,0.85408 0.592163,0.27331 0.781959,0.37959 0.193592,0.10629 0.39098,0.29229 0.197387,0.186 0.315061,0.44032 0.121469,0.25053 0.121469,0.5656 0,0.78195 -0.527633,1.21469 -0.523836,0.42894 -1.237469,0.42894 -0.690857,0 -1.210898,-0.27331 l 0.129062,-0.53522 q 0.611142,0.2771 1.066653,0.2771 0.531428,0 0.850285,-0.27331 0.322653,-0.2771 0.322653,-0.75918 0,-0.35682 -0.208775,-0.60355 -0.208776,-0.25053 -0.770572,-0.50865 -0.576979,-0.26572 -0.747796,-0.36062 -0.16702,-0.0987 -0.33404,-0.26951 -0.167021,-0.17081 -0.258123,-0.38338 -0.0911,-0.21258 -0.0911,-0.46311 0,-0.66428 0.478286,-1.03628 0.478286,-0.372 1.210898,-0.372 0.535224,0 1.062857,0.16322 z m 4.022137,4.76388 h -2.797592 v -5.35604 h 2.774816 v 0.54281 H 48.52908 v 1.65882 h 2.068775 v 0.54282 H 48.52908 v 2.06877 h 2.175061 z m 0.750053,-5.35604 h 1.055265 q 1.05147,0 1.685388,0.71743 0.633918,0.71363 0.633918,1.96249 0,1.27542 -0.645306,1.97767 -0.64151,0.69845 -1.647428,0.69845 h -1.081837 z m 0.622531,4.81322 h 0.440326 q 0.76298,0 1.207102,-0.56559 0.444123,-0.56559 0.444123,-1.56771 0,-0.99453 -0.447919,-1.56392 -0.444122,-0.57319 -1.203306,-0.57319 h -0.440326 z"
       id="text2-3-3"
       transform="rotate(-11.641882,2.9738887e-8,5.7845075e-6)"
       aria-label="CLOSED" /></g></svg>
