<?xml version="1.0" encoding="UTF-8" standalone="no"?>
<!-- Created with Inkscape (http://www.inkscape.org/) -->

<svg
   width="27.906282mm"
   height="23.360453mm"
   viewBox="0 0 27.906282 23.360452"
   version="1.1"
   id="svg1"
   xml:space="preserve"
   sodipodi:docname="lastcallWHITE.svg"
   inkscape:version="1.4.3 (0d15f75, 2025-12-25)"
   xmlns:inkscape="http://www.inkscape.org/namespaces/inkscape"
   xmlns:sodipodi="http://sodipodi.sourceforge.net/DTD/sodipodi-0.dtd"
   xmlns="http://www.w3.org/2000/svg"
   xmlns:svg="http://www.w3.org/2000/svg"><sodipodi:namedview
     id="namedview1"
     pagecolor="#ffffff"
     bordercolor="#000000"
     borderopacity="0.25"
     inkscape:showpageshadow="2"
     inkscape:pageopacity="0.0"
     inkscape:pagecheckerboard="0"
     inkscape:deskcolor="#d1d1d1"
     inkscape:document-units="mm"
     inkscape:zoom="3.0466764"
     inkscape:cx="-20.678271"
     inkscape:cy="45.787601"
     inkscape:window-width="2056"
     inkscape:window-height="1188"
     inkscape:window-x="1920"
     inkscape:window-y="39"
     inkscape:window-maximized="1"
     inkscape:current-layer="layer1"><inkscape:page
       x="0"
       y="0"
       width="27.906282"
       height="23.360453"
       id="page2"
       margin="0"
       bleed="0" /></sodipodi:namedview><defs
     id="defs1" /><g
     id="layer1"
     transform="translate(-57.684585,-224.50197)"><g
       id="g2"><path
         id="rect1-0-5"
         transform="matrix(-0.78702348,-4.4382842e-5,0.00343299,0.787016,95.779741,95.61824)"
         d="m 16.92206,175.40582 h 29.112802 a 2.6458581,2.6458581 45 0 1 2.645858,2.64586 v 12.24825 a 2.6458581,2.6458581 135 0 1 -2.645858,2.64586 H 16.92206 a 2.6458581,2.6458581 45 0 1 -2.645858,-2.64586 v -12.24825 a 2.6458581,2.6458581 135 0 1 2.645858,-2.64586 z"
         style="fill:#000000;fill-opacity:0;stroke:#ffffff;stroke-width:1;stroke-dasharray:none;stroke-opacity:1" /><path
         style="fill:#1a1a1a;fill-opacity:0;stroke:#ffffff;stroke-width:0.787024;stroke-dasharray:none;stroke-opacity:1"
         d="m 80.049933,233.66451 -7.575469,-6.86646 m -1.672051,-0.003 -7.57747,6.86751"
         id="path1-8-2" /><path
         id="path2-1-4"
         style="fill:#1a1a1a;fill-opacity:0;stroke:#ffffff;stroke-width:0.787024;stroke-opacity:1"
         transform="matrix(-0.9794304,0.20178229,0.20178229,0.9794304,0,0)"
         d="m -23.424361,235.83763 a 1.1305934,1.1366888 0 0 1 -1.130594,1.13669 1.1305934,1.1366888 0 0 1 -1.130593,-1.13669 1.1305934,1.1366888 0 0 1 1.130593,-1.13669 1.1305934,1.1366888 0 0 1 1.130594,1.13669 z" /><path
         id="path2-8-4-9"
         style="fill:#ffffff;fill-opacity:1;stroke-width:0.505661"
         transform="matrix(-0.9794304,0.20178229,0.20178229,0.9794304,0,0)"
         d="m -33.386474,247.3582 a 0.71745014,0.73943567 0 0 1 -0.71745,0.73944 0.71745014,0.73943567 0 0 1 -0.71745,-0.73944 0.71745014,0.73943567 0 0 1 0.71745,-0.73944 0.71745014,0.73943567 0 0 1 0.71745,0.73944 z" /><path
         id="path2-8-2-8-4"
         style="fill:#ffffff;fill-opacity:1;stroke-width:0.505661"
         transform="matrix(-0.9794304,0.20178229,0.20178229,0.9794304,0,0)"
         d="m -10.500251,242.57103 a 0.71745014,0.73943567 0 0 1 -0.71745,0.73944 0.71745014,0.73943567 0 0 1 -0.71745,-0.73944 0.71745014,0.73943567 0 0 1 0.71745,-0.73944 0.71745014,0.73943567 0 0 1 0.71745,0.73944 z" /></g><path
       d="m 66.344827,239.52986 h -2.498801 v -4.59089 h 0.533598 v 4.12562 h 1.965203 z m 4.11222,0 H 69.89742 l -0.507569,-1.6073 h -1.506439 l -0.514076,1.6073 h -0.553121 l 1.499932,-4.59089 h 0.640968 z m -1.220118,-2.07257 -0.601925,-1.90013 -0.598671,1.90013 z m 3.988581,-2.01076 q -0.409959,-0.1399 -0.777621,-0.1399 -0.416467,0 -0.680013,0.19196 -0.260291,0.18871 -0.260291,0.54011 0,0.41646 0.686519,0.73207 0.507569,0.23426 0.670252,0.32536 0.165936,0.0911 0.335125,0.25053 0.16919,0.15943 0.270053,0.37743 0.104117,0.21474 0.104117,0.48479 0,0.67025 -0.452257,1.04117 -0.449004,0.36766 -1.060689,0.36766 -0.592164,0 -1.037914,-0.23426 l 0.110624,-0.45877 q 0.523837,0.23752 0.914275,0.23752 0.455511,0 0.728817,-0.23426 0.27656,-0.23752 0.27656,-0.65073 0,-0.30585 -0.17895,-0.51733 -0.178951,-0.21474 -0.660491,-0.43599 -0.494554,-0.22776 -0.640968,-0.3091 -0.143161,-0.0846 -0.286321,-0.23101 -0.143161,-0.14641 -0.221248,-0.32862 -0.07809,-0.1822 -0.07809,-0.39694 0,-0.56939 0.40996,-0.88825 0.409959,-0.31885 1.037913,-0.31885 0.458764,0 0.911021,0.1399 z m 4.326961,-0.0748 h -1.415336 v 4.15816 H 75.60679 v -4.15816 H 74.184946 V 234.939 h 3.367525 z"
       id="path1"
       style="font-weight:bold;font-size:6.66347px;line-height:1;font-family:'Andale Mono';-inkscape-font-specification:'Andale Mono, Bold';letter-spacing:-0.381067px;fill:#dba800;fill-opacity:0.988235;stroke:#daa800;stroke-width:0.31481;stroke-opacity:0.988235" /><path
       d="m 66.497748,245.90701 q -0.540105,0.37417 -1.252654,0.37417 -0.891499,0 -1.356771,-0.61169 -0.462018,-0.61168 -0.462018,-1.76998 0,-1.11925 0.449004,-1.75046 0.449003,-0.63446 1.369785,-0.63446 0.331872,0 0.657237,0.0846 0.325365,0.0846 0.523837,0.2245 l -0.175697,0.41972 q -0.458764,-0.26029 -1.005377,-0.26029 -0.634461,0 -0.943558,0.46202 -0.309096,0.45876 -0.309096,1.45438 0,1.91314 1.252654,1.91314 0.530345,0 1.086718,-0.32536 z m 3.959299,0.28632 H 69.89742 l -0.507569,-1.6073 h -1.506439 l -0.514076,1.6073 h -0.553121 l 1.499932,-4.5909 h 0.640968 z m -1.220118,-2.07257 -0.601925,-1.90013 -0.598671,1.90013 z m 4.343229,2.07257 h -2.498801 v -4.5909 h 0.533598 v 4.12563 h 1.965203 z m 3.617666,0 h -2.498801 v -4.5909 h 0.533598 v 4.12563 h 1.965203 z m 2.52444,-3.09747 -0.152922,1.71792 h -0.279814 l -0.152921,-1.71792 v -1.49343 h 0.585657 z m -0.279814,2.35239 q 0.172443,0 0.289574,0.11713 0.117132,0.11713 0.117132,0.28957 0,0.17245 -0.120385,0.29934 -0.117131,0.12689 -0.286321,0.12689 -0.165936,0 -0.283067,-0.12364 -0.117132,-0.12689 -0.117132,-0.30259 0,-0.1757 0.113878,-0.28957 0.117131,-0.11713 0.286321,-0.11713 z"
       id="path2"
       style="font-weight:bold;font-size:6.66347px;line-height:1;font-family:'Andale Mono';-inkscape-font-specification:'Andale Mono, Bold';letter-spacing:-0.381067px;fill:#dba800;fill-opacity:0.988235;stroke:#daa800;stroke-width:0.31481;stroke-opacity:0.988235" /></g></svg>
