<?xml version="1.0" encoding="UTF-8" standalone="no"?>
<!-- Created with Inkscape (http://www.inkscape.org/) -->

<svg
   width="29.292334mm"
   height="25.877792mm"
   viewBox="0 0 29.292334 25.877792"
   version="1.1"
   id="svg1"
   xml:space="preserve"
   inkscape:version="1.4.3 (0d15f75, 2025-12-25)"
   sodipodi:docname="open.svg"
   xmlns:inkscape="http://www.inkscape.org/namespaces/inkscape"
   xmlns:sodipodi="http://sodipodi.sourceforge.net/DTD/sodipodi-0.dtd"
   xmlns="http://www.w3.org/2000/svg"
   xmlns:svg="http://www.w3.org/2000/svg"><sodipodi:namedview
     id="namedview1"
     pagecolor="#ffffff"
     bordercolor="#000000"
     borderopacity="0.25"
     inkscape:showpageshadow="2"
     inkscape:pageopacity="0.0"
     inkscape:pagecheckerboard="0"
     inkscape:deskcolor="#d1d1d1"
     inkscape:document-units="mm"
     inkscape:zoom="0.96681148"
     inkscape:cx="350.63713"
     inkscape:cy="692.48247"
     inkscape:window-width="1920"
     inkscape:window-height="1022"
     inkscape:window-x="0"
     inkscape:window-y="30"
     inkscape:window-maximized="1"
     inkscape:current-layer="layer1"
     showgrid="false" /><defs
     id="defs1" /><g
     inkscape:label="Layer 1"
     inkscape:groupmode="layer"
     id="layer1"
     transform="translate(-105.12851,-182.86243)"><g
       id="g2"><path
         id="rect1-0"
         transform="matrix(-0.77082577,-0.15885087,-0.15544352,0.77152011,172.66802,62.130042)"
         d="m 16.92206,175.40582 h 29.112802 a 2.6458581,2.6458581 45 0 1 2.645858,2.64586 v 12.24825 a 2.6458581,2.6458581 135 0 1 -2.645858,2.64586 H 16.92206 a 2.6458581,2.6458581 45 0 1 -2.645858,-2.64586 v -12.24825 a 2.6458581,2.6458581 135 0 1 2.645858,-2.64586 z"
         style="fill:#000000;fill-opacity:0;stroke:#000000;stroke-width:1;stroke-dasharray:none;stroke-opacity:1" /><path
         style="fill:#1a1a1a;fill-opacity:0;stroke:#000000;stroke-width:0.787024;stroke-dasharray:none;stroke-opacity:1"
         d="m 129.30229,194.05386 -9.42615,-8.87962 m -1.61656,0.0259 -5.43604,5.4578"
         id="path1-8"
         sodipodi:nodetypes="cccc" /><path
         id="path2-1"
         style="fill:#1a1a1a;fill-opacity:0;stroke:#000000;stroke-width:0.787024"
         transform="scale(-1,1)"
         d="m -117.92466,184.39262 a 1.1305934,1.1366888 0 0 1 -1.13059,1.13669 1.1305934,1.1366888 0 0 1 -1.1306,-1.13669 1.1305934,1.1366888 0 0 1 1.1306,-1.13668 1.1305934,1.1366888 0 0 1 1.13059,1.13668 z" /><path
         id="path2-8-4"
         style="stroke-width:0.505661"
         transform="scale(-1,1)"
         d="m -131.53899,196.51021 a 0.71745014,0.73943567 0 0 1 -0.71745,0.73943 0.71745014,0.73943567 0 0 1 -0.71745,-0.73943 0.71745014,0.73943567 0 0 1 0.71745,-0.73944 0.71745014,0.73943567 0 0 1 0.71745,0.73944 z" /><path
         id="path2-8-2-8"
         style="stroke-width:0.505661"
         transform="scale(-1,1)"
         d="m -108.65274,191.72302 a 0.71745014,0.73943567 0 0 1 -0.71745,0.73944 0.71745014,0.73943567 0 0 1 -0.71745,-0.73944 0.71745014,0.73943567 0 0 1 0.71745,-0.73943 0.71745014,0.73943567 0 0 1 0.71745,0.73943 z" /><path
         style="font-weight:bold;font-size:7.77404px;line-height:1;font-family:'Andale Mono';-inkscape-font-specification:'Andale Mono, Bold';text-align:center;letter-spacing:-0.939129px;text-anchor:middle;fill:#00a513;stroke:#00a513;stroke-width:0.31481"
         d="m 153.79396,166.60264 q 0.89963,0 1.37033,0.71363 0.47449,0.70984 0.47449,2.06878 0,1.35135 -0.4707,2.06498 -0.47069,0.71363 -1.37412,0.71363 -0.89584,0 -1.37033,-0.70983 -0.47069,-0.71364 -0.47069,-2.06878 0,-1.35514 0.47069,-2.06878 0.4707,-0.71363 1.37033,-0.71363 z m 0,5.01441 q 1.18433,0 1.18433,-2.232 0,-2.2358 -1.18433,-2.2358 -0.57698,0 -0.88065,0.58078 -0.29988,0.57698 -0.29988,1.65502 0,1.08943 0.29988,1.66261 0.29988,0.56939 0.88065,0.56939 z m 2.37471,-4.91192 h 1.35894 q 0.77057,0 1.23367,0.38719 0.4631,0.38718 0.4631,1.06665 0,0.68326 -0.4631,1.09322 -0.45931,0.40617 -1.2071,0.40617 h -0.76298 v 2.40281 h -0.62253 z m 0.62253,2.41041 h 0.67567 q 1.09702,0 1.09702,-0.91861 0,-0.42514 -0.29987,-0.68706 -0.29609,-0.26192 -0.76678,-0.26192 h -0.70604 z m 5.90112,2.94563 h -2.7976 v -5.35604 h 2.77482 v 0.54282 h -2.15229 v 1.65881 h 2.06878 v 0.54282 h -2.06878 v 2.06878 h 2.17507 z m 3.90446,0 h -0.69086 l -1.92073,-4.22865 v 4.22865 h -0.62253 v -5.35604 h 0.69465 l 1.92832,4.1907 v -4.1907 h 0.61115 z"
         id="text2-3-4-3"
         transform="rotate(12.228)"
         aria-label="OPEN" /></g></g></svg>
