<?xml version="1.0" encoding="UTF-8" standalone="no"?>
<!-- Created with Inkscape (http://www.inkscape.org/) -->

<svg
   width="29.292334mm"
   height="25.877792mm"
   viewBox="0 0 29.292334 25.877792"
   version="1.1"
   id="svg1"
   xml:space="preserve"
   inkscape:version="1.4.3 (0d15f75, 2025-12-25)"
   sodipodi:docname="openWHITE.svg"
   xmlns:inkscape="http://www.inkscape.org/namespaces/inkscape"
   xmlns:sodipodi="http://sodipodi.sourceforge.net/DTD/sodipodi-0.dtd"
   xmlns="http://www.w3.org/2000/svg"
   xmlns:svg="http://www.w3.org/2000/svg"><sodipodi:namedview
     id="namedview1"
     pagecolor="#ffffff"
     bordercolor="#000000"
     borderopacity="0.25"
     inkscape:showpageshadow="2"
     inkscape:pageopacity="0.0"
     inkscape:pagecheckerboard="0"
     inkscape:deskcolor="#d1d1d1"
     inkscape:document-units="mm"
     inkscape:zoom="3.3240179"
     inkscape:cx="-56.257218"
     inkscape:cy="91.606004"
     inkscape:window-width="1920"
     inkscape:window-height="1022"
     inkscape:window-x="0"
     inkscape:window-y="30"
     inkscape:window-maximized="1"
     inkscape:current-layer="layer1"
     showgrid="false"><inkscape:page
       x="0"
       y="1.7272477e-29"
       width="29.292334"
       height="25.87779"
       id="page2"
       margin="0"
       bleed="0" /></sodipodi:namedview><defs
     id="defs1" /><path
     style="font-weight:bold;font-size:7.77404px;line-height:1;font-family:'Andale Mono';-inkscape-font-specification:'Andale Mono, Bold';text-align:center;letter-spacing:-0.939129px;text-anchor:middle;fill:#00a513;stroke:#00a513;stroke-width:0.31481"
     d="m 9.8893979,12.534358 q 0.8792201,0.190543 1.1880921,0.987678 0.313379,0.794234 0.02555,2.122343 -0.286219,1.320691 -0.897388,1.918435 -0.6111602,0.597747 -1.4940936,0.406398 -0.8755156,-0.189741 -1.1888969,-0.983965 -0.3088606,-0.797143 -0.021839,-2.121538 0.2870219,-1.324395 0.8981838,-1.922151 0.6111696,-0.597744 1.4903892,-0.4072 z m -1.0620642,4.900645 q 1.1574606,0.250844 1.6302033,-1.930517 0.473548,-2.185076 -0.6839124,-2.43592 -0.5638898,-0.122205 -0.9836809,0.38108 -0.4152822,0.500375 -0.6436137,1.553957 -0.2307439,1.064713 -0.059068,1.688404 0.1724782,0.619988 0.7400717,0.742996 z m 3.3611903,-4.297511 1.328109,0.287826 q 0.753088,0.163209 1.123673,0.6397 0.370588,0.476482 0.226675,1.140536 -0.144716,0.667759 -0.68414,0.970332 -0.534917,0.299672 -1.265742,0.141289 l -0.74567,-0.161601 -0.508921,2.348296 -0.608406,-0.131853 z m 0.09788,2.487577 0.66034,0.143108 q 1.072132,0.232352 1.266696,-0.665417 0.09004,-0.415495 -0.147546,-0.734986 -0.233897,-0.31869 -0.693908,-0.418383 L 12.68196,13.79985 Z m 5.143347,4.128672 -2.73413,-0.592538 1.134422,-5.234525 2.711867,0.587714 -0.114971,0.530504 -2.10346,-0.45586 -0.35134,1.621176 2.021845,0.438173 -0.114971,0.530504 -2.021844,-0.438172 -0.438173,2.021844 2.125723,0.460685 z m 3.815877,0.826975 -0.675186,-0.146326 -0.981515,-4.539528 -0.895638,4.132712 -0.608407,-0.131853 1.134422,-5.234525 0.678891,0.147129 0.99697,4.504046 0.887601,-4.095623 0.597284,0.129443 z"
     id="text2-3-4-3"
     aria-label="OPEN" /><g
     inkscape:label="Layer 1"
     inkscape:groupmode="layer"
     id="layer1"
     transform="translate(-105.12851,-182.86243)"><g
       id="g2"><path
         id="rect1-0"
         transform="matrix(-0.77082577,-0.15885087,-0.15544352,0.77152011,172.66802,62.130042)"
         d="m 16.92206,175.40582 h 29.112802 a 2.6458581,2.6458581 45 0 1 2.645858,2.64586 v 12.24825 a 2.6458581,2.6458581 135 0 1 -2.645858,2.64586 H 16.92206 a 2.6458581,2.6458581 45 0 1 -2.645858,-2.64586 v -12.24825 a 2.6458581,2.6458581 135 0 1 2.645858,-2.64586 z"
         style="fill:#000000;fill-opacity:0;stroke:#ffffff;stroke-width:1;stroke-dasharray:none;stroke-opacity:1" /><path
         style="fill:#000000;fill-opacity:1;stroke:#ffffff;stroke-width:0.787024;stroke-dasharray:none;stroke-opacity:1"
         d="m 129.30229,194.05386 -9.42615,-8.87962 m -1.61656,0.0259 -5.43604,5.4578"
         id="path1-8"
         sodipodi:nodetypes="cccc" /><path
         id="path2-1"
         style="fill:#000000;fill-opacity:0;stroke:#ffffff;stroke-width:0.787024;stroke-opacity:1"
         transform="scale(-1,1)"
         d="m -117.92466,184.39262 a 1.1305934,1.1366888 0 0 1 -1.13059,1.13669 1.1305934,1.1366888 0 0 1 -1.1306,-1.13669 1.1305934,1.1366888 0 0 1 1.1306,-1.13668 1.1305934,1.1366888 0 0 1 1.13059,1.13668 z" /><path
         id="path2-8-4"
         style="fill:#ffffff;fill-opacity:1;stroke-width:0.505661"
         transform="scale(-1,1)"
         d="m -131.53899,196.51021 a 0.71745014,0.73943567 0 0 1 -0.71745,0.73943 0.71745014,0.73943567 0 0 1 -0.71745,-0.73943 0.71745014,0.73943567 0 0 1 0.71745,-0.73944 0.71745014,0.73943567 0 0 1 0.71745,0.73944 z" /><path
         id="path2-8-2-8"
         style="fill:#ffffff;fill-opacity:1;stroke-width:0.505661"
         transform="scale(-1,1)"
         d="m -108.65274,191.72302 a 0.71745014,0.73943567 0 0 1 -0.71745,0.73944 0.71745014,0.73943567 0 0 1 -0.71745,-0.73944 0.71745014,0.73943567 0 0 1 0.71745,-0.73943 0.71745014,0.73943567 0 0 1 0.71745,0.73943 z" /></g></g></svg>
